<svg xmlns="http://www.w3.org/2000/svg" viewBox="0 0 512 512" style="height: 512px; width: 512px;"><defs><filter id="shadow-1" height="300%" width="300%" x="-100%" y="-100%"><feFlood flood-color="rgba(194, 194, 194, 1)" result="flood"></feFlood><feComposite in="flood" in2="SourceGraphic" operator="atop" result="composite"></feComposite>0<feOffset dx="0" dy="10" result="offset"></feOffset><feComposite in="SourceGraphic" in2="offset" operator="over"></feComposite></filter><linearGradient x1="0" x2="1" y1="0" y2="1" id="gradient-1"><stop offset="0%" stop-color="#0071f7" stop-opacity="1"></stop><stop offset="100%" stop-color="#002b56" stop-opacity="1"></stop></linearGradient></defs><g class="" transform="translate(0,0)" style="touch-action: none;"><path d="M256 18.365L50.14 136 256 253.635 461.86 136 256 18.365zm-154 168L50.14 216 256 333.635 461.86 216 410 186.365l-154 88-154-88zm0 80L50.14 296 256 413.635 461.86 296 410 266.365l-154 88-154-88zm0 80L50.14 376 256 493.635 461.86 376 410 346.365l-154 88-154-88z" fill="url(#gradient-1)" filter="url(#shadow-1)"></path></g></svg>